<svg xmlns="http://www.w3.org/2000/svg">
    <symbol id="icon-check" viewBox="0 0 20 20">
        <title>Check</title>
        <path d="M7.984,15L4,11,6,9l2,2,6-6,2,2Z"/>
    </symbol>

    <symbol id="close" viewBox="0 0 20 20">
        <title>close</title>
        <g stroke="none" stroke-width="1">
            <g transform="translate(-1016.000000, -464.000000)">
                <g transform="translate(1016.000000, 464.000000)">
                    <path d="M10,8.58578644 L18.1464466,0.439339828 C18.3417088,0.244077682 18.6582912,0.244077682 18.8535534,0.439339828 L19.5606602,1.14644661 C19.7559223,1.34170876 19.7559223,1.65829124 19.5606602,1.85355339 L11.4142136,10 L19.5606602,18.1464466 C19.7559223,18.3417088 19.7559223,18.6582912 19.5606602,18.8535534 L18.8535534,19.5606602 C18.6582912,19.7559223 18.3417088,19.7559223 18.1464466,19.5606602 L10,11.4142136 L1.85355339,19.5606602 C1.65829124,19.7559223 1.34170876,19.7559223 1.14644661,19.5606602 L0.439339828,18.8535534 C0.244077682,18.6582912 0.244077682,18.3417088 0.439339828,18.1464466 L8.58578644,10 L0.439339828,1.85355339 C0.244077682,1.65829124 0.244077682,1.34170876 0.439339828,1.14644661 L1.14644661,0.439339828 C1.34170876,0.244077682 1.65829124,0.244077682 1.85355339,0.439339828 L10,8.58578644 Z" id="Combined-Shape"></path>
                </g>
            </g>
        </g>
    </symbol>
</svg>
