<svg xmlns="http://www.w3.org/2000/svg" width="299" height="353" viewBox="0 0 299 353">
    <path fill="#b89d6f" fill-rule="evenodd" d="M37.288 187.342v3.836s.454 1.004 3.112 1.658c2.666.646 17.13.477 17.014.124l.023-.059c17.122 3.617 35.103 5.068 49.284 5.376 1.714 3.447 3.244 6.148 4.085 7.306-.219.257-.43.507-.622.755-14.728 18.226-25.121 42.285-11.644 63.07 1.084 1.681 5.573 6.925 8.826 8.925.131.736.27 1.476.431 2.233 6.02 28.728 40.275 48.464 40.275 48.464h1.195c-.424.295-.865.574-1.319.832-4.468 2.521-7.404 3.278-8.56 2.83-1.092-.433-7.589 2.098-10.043 5.491-5.318 1.822-8.76 2.663-13.93 2.518-.529-.017-.418.366-.395.734-.418.235-1.092.584-1.737 1.283-.652.689-2.154 1.211-2.857.931-.71-.27-1.999.637-1.999.637l-1.699-.417-2.958.214 3.024 1.181s-1.056 1.709-.799 2.61c-.725-.06-1.56-.028-.491.543 1.663.878 5.567 4.063 12.041.895 0 0 9.375-3.23 11.03-2.34 1.664.881 16.034 6.25 22.01 5.025 3.172-.653 10.327-2.876 17.6-9.315 13.718-2.306 30.88-19.877 36.578-29.068 10.232-16.51 12.538-37.846 8.606-55.603 1.127-5.415 1.81-12 2.014-17.595.41-11.004-1.107-25.005-6.893-36.776 1.34-2.128 4.153-6.968 5.955-12.558 1.744-.028 2.528.03 3.304-.08 5.779.072 21.18.241 23.297.08 2.608-.212 4.805-.732 5.846-1.671.63-.573.804-1.938.842-2.935 19.768-3.153 38.115-6.534 43.037-8.911 5.171-7.188 7.83-14.787 7.984-22.4-.154-7.613-2.813-15.212-7.984-22.4-4.922-2.377-23.269-5.758-43.037-8.91-.038-1-.212-2.363-.842-2.928-1.04-.939-3.238-1.467-5.846-1.673-2.117-.175-17.518 0-23.297.075-8.856-1.277-10.504-1.123-15.645-1.85 3.508 3.72 4.95 12.814 5.507 23.12-.013.27-.094 1.987.007 2.83.119.925-1.149 1.958-2.409 2.304-1.054.285-1.384 1.782-1.464 2.266-.25 0-.454.008-.595.03-.804.116-.116 1.958.917 3.564 1.28 2.003.396 9.469-2.029 10.687-.609.3-1.07 1.722-1.867 3.219-.806 1.489-2.865 4.02-4.703 8.04-1.464 3.218-6.849 7.642-8.943 9.285a43.042 43.042 0 0 0-6.972-1.996c-6.035-1.202-15.498.573-18.2 1.996a30.368 30.368 0 0 0-4.03 2.552 10.215 10.215 0 0 1-.446-.243c-6.797-3.995-16.091-1.451-24.763 3.339-2.57-1.776-14.576-23.31-16.444-25.899-1.963-2.72-6.19-9.226-6.19-9.226s-1.207-2.113-1.353-3.023c-.103-.594-1.01-1.797-1.875-2.295.35-1.307.63-2.846.761-4.643.557-7.76 1.268-23.31 2.528-27.13 1.192-3.587 8.05-17.112 12.437-22.497a21.943 21.943 0 0 1 2.672 1.709c1.766 1.33 3.185 3.455 5.025 5.158 2.446 2.551 8.16 5.522 9.886 6.138 3.43 1.231 6.792 1.855 10.065 1.98 5.09 1.687 10.467 2.941 15.85 3.456 21.152 2.024 34.32-7.519 40.312-14.398 5.991-6.88 4.446-13.166 4.343-13.27-.096-.109-1.195-3.233-2.205-3.336-1.003-.096-3.77-1.078-7.969.923-2.057.984-6.686 3.58-12.795 5.472a106.102 106.102 0 0 0 4.644-6.102c6.644-9.424 18.201-36.776 7.785-47.8-.645-.682-.526-.8-1.053-.573-1.407-.798-1.628-.858-3.026-.636 0 0-4.328 1.327-7.302 8.258-.542 1.269-1.164 2.773-1.847 4.393-.212-21.247-9.433-41.043-9.433-41.043l-3.354-2.392-.688-.543c-.11-.162-.169-.265-.41-.419-.243-.154-1.853-.924-2.249-.689-.396.235-1.744 1.226-1.913 1.688-.446 2.706-3.946 4.137-3.72 10.57.227 6.43.66 40.581-4.717 49.682-1.384 2.347-2.636 4.328-3.8 6.001-.9-.095-2.82-.103-2.967-.118-2.936-.278-4.775-.212-7.361-1.027-1.883-.593-3.713-2.09-5.771-3.014-2.813-1.511-8.548-2.178-10.202-2.12-1.232.051-2.432.177-3.596.374-2.052-2.266-4.461-3.99-4.461-3.99l-.454-14.214s-.521-1.247-2.417-.227c-1.89 1.02-5.62-.777-5.62-.777s.303 10.473.295 13.598c-.015 3.066-3.977 10.216-4.279 15.057-8.135 8.457-13.586 21.315-16.94 34.246-.49 1.893-.958 4.298-1.34 7.026-10.43.815-22.632 2.332-33.53 4.636l-.022-.065c.116-.346-14.348-.522-17.014.131-2.658.646-3.112 1.65-3.112 1.65v3.844c-1.21.424-2.404.866-3.576 1.328-14.385 5.64-29.025 15.269-33.712 30.84 4.687 15.572 19.327 25.202 33.712 30.843 1.172.461 2.366.903 3.576 1.335zm118.037-78.898c3.067-.434 6.04-1.292 8.919-2.5 4.982.234 15.469.007 26.588-4.11-13.506 2.84-19.842 3.264-23.635 2.73 3.698-1.9 7.22-4.372 10.532-7.232 5.917-.426 10.957-1.57 15.827-4.54 5.42-3.3 11.045-6.925 13.382-7.548.05.03-.146-1.159.761-.704.91.454-1.472 9.703-5.406 13.893-3.931 4.18-12.662 10.312-30.592 11.72-5.39.424-10.978-.316-16.376-1.709zm24.294-12.8a78.13 78.13 0 0 0 4.935-5.03c7.318-1.996 15.829-5.517 17.754-7.306 2.095-1.943 3.077-.807 4.168.265-.79.131-2.424.47-3.654 1.224-1.693 1.035-8.629 7.576-18.941 10.196-1.275.32-2.71.535-4.262.651zm-51.731-31.34c.227-.045.453-.096.68-.131 4.665-.845 9.522.556 11.016 1.708.63.947 1.106 1.49 1.245 3.067.131 1.575 1.378 4.26-.842 4.298-1.033.02-1.918-.074-2.936-.074-4.856-3.939-8.27-7.401-9.068-8.721l-.095-.147zm11.058 10.37c.507-.007.887.038 1.092.134.528.263.594.674.506 1.085-.542-.411-1.076-.815-1.598-1.218zm2.798 2.105c.06-.094.133-.197.214-.308 0 0 2.533-1.451 5.441-1.113.366.036.754.109 1.164.197-.564.316-1.141.588-1.736.823-1.45.585-2.732 1.012-3.83 1.297a51.755 51.755 0 0 1-1.253-.896zm-1.669 1.38c-.667.015-1.164-.08-1.487-.257-.622-.338-3.406.147-6.005 1.277-2.93-2.766-5.348-5.378-6.343-6.975-2.03-3.228-4.015-8.861-4.761-11.077.739.654 1.61 1.461 2.321 2.2 1.517 1.586 3.788 3.963 4.68 5.73.63 1.246 5.86 4.98 11.595 9.102zm-8.987 1.76c-.915.514-1.743 1.115-2.358 1.79-1.963.382-3.655.675-5.273.837-1.232-1.534-1.048-.954-3.281-4.68-2.278-3.8-3.195-11.575-2.792-14.12 1.048-.014 1.897-.272 2.946-1.958 0 0 .534 7.98 10.758 18.13zm-10.531 2.78c-.295 0-.587-.007-.887-.014-.807-.682-1.334-1.166-1.334-1.166-.871.336-1.509.293-2.02.865-.273-.037-.543-.08-.815-.133-.262-.036-.365.045-.4.191-2.425-4.202-3.899-7.533-4.118-9.534-.235-2.12 1.355-7.173 2.724-10.292.776-.909 1.89.008 2.14.565 0 0-.235 9.888 1.537 13.944 1.575 3.594 2.066 4.106 3.172 5.575zm-7.077 1.033c-.05.038-.095.075-.146.119-.666.557-2.117.85-2.747.507-.637-.346-1.925.328-1.925.328l-1.538-.6-2.784-.192 2.716 1.483s-1.141 1.452-.973 2.317c-.68-.139-1.457-.22-.511.44 1.164.822 3.528 3.162 7.616 3.036-8.138 12.454-13.682 28.767-14.796 40.364-.542 5.691-.139 15.329.69 19.062-8.167-3.917-6.892-28.892-6.247-35.353 1.588-15.851 7.074-30.923 16.56-40.657.511 3.309 2.115 5.994 4.085 9.146zm2.923-21.225c-.138-1.54-1.29-1.862-2.563-1.915.094-.205 1.787-.732 1.721-1.635l-1.033-14.28c2.3 1.898 5.406.997 5.406.997.013 3.263.043 7.415.058 9.785.008 2.37.945 2.743.257 4.02-.71 1.312-2.344 3.152-3.846 3.028zm-10.927 87.817c1.273 1.554 3.105 3.939 3.705 5.142.755 1.51 5.282 8.009 7.399 12.24 1.787 3.58 10.794 17.649 13.54 21.917a84.383 84.383 0 0 0-8.172 5.597c-2.359-3.778-11.47-18.557-12.767-23.23-1.069-3.88-2.41-10.832-3.236-15.322-.066.603-1.018-2.5-1.613-4.121.36-.565.763-1.298 1.144-2.223zm-2.535 2.523a5.424 5.424 0 0 0-.424.543c-.587.22-1.54.462-2.424.366-.368-.432-.265-1.136-.14-1.664 1.297-.557 2.564-.33 2.988-.015v.77zm-.542 1.658c.514 2.787 2.417 9.388 3.311 13.502.988 4.533 11.719 25.386 13.813 29.157-2.701 2.243-5.083 4.487-6.995 6.506-3.508-2.135-8.012-10.938-11.22-20.854-3.2-9.9-1.333-18.153-.439-28.127.696.094 1.046.066 1.53-.184zm47.696-79.932c-2.578-.543-5.34-.88-6.958-.257.073-.272.35-1.416.358-1.754l8.569.323a18.293 18.293 0 0 1-1.969 1.688zm3.508-3.338l-10.284-.336c-.234-1.204-.673-2.517-1.134-3.675-.015-.207-.587-.712-.645-.807 4.035 2.243 8.979 1.67 13.059 3.586-.337.432-.667.843-.996 1.232zM120.22 92.873c-3.904 5.14-11.316 18.153-12.553 24.498-1.451 7.443-1.018 12.813-1.487 19.392-.476 6.593-.688 10.913-2.366 13.825-.761-.03-2.432-.512-2.923-.939-3.998-24.139 6.98-43.42 9.697-49.318 1.855-4.026 3.576-7.049 5.201-9.447.704.286 1.48.573 1.581.616 1.063.528 1.986.954 2.85 1.373zm-4.322-6.198l-8.224 1.665c-.594-.308-.602-.918-.14-1.658 1.144-1.834 3.377-.08 4.982-.85.915-.442 2.167-1.38 2.958-1.608.051.368.124.757.205 1.1.065.427.154.889.22 1.35zm5.39-2.663c2.367-.396 5.714-.961 7.165-1.158.094.396-.337.886-.302 1.517-.615.25-2.518.845-4.6 1.327a48.868 48.868 0 0 1-2.262-1.686zm3.972 2.766c1.406-.222 2.694-.477 3.589-.853-.148.838-.799 1.234-1.202 1.812a10.754 10.754 0 0 1-2.08-.798 9.4 9.4 0 0 0-.307-.161zm4.438 1.335c.116-1.226 1.061-2.488 4.181-1.827l.051.007-.262.132c-1.084.543-.989 1.057-2.132 1.716 0 0-.74.073-1.838-.028zm23.078-5.84c2.154-1.254 4.74-3.212 10.393-11.331 7.58-10.9 7.792-17.8 8.38-22.106.586-4.305 3.003-22.73 2.416-26.436-.585-3.695-2.981-14.322-3.67-18.1.719-.609 1.576-.727 2.476-1.02.315.47.541 1.35 2.323 2.163 1.772.815 4.115 7.826 6.43 17.406 1.531 6.352 3.802 16.062 2.842 27.085-2.637 6.28-5.515 12.859-7.12 14.802-2.49 3-15.088 13.79-20.917 16.187-1.568.646-2.659 1.065-3.553 1.35zm-43.667 6.8c2.094-.286 7.86-2.083 6.467.469-1.407.272-3.801.653-4.694.33-.468-.176-1.128-.484-1.773-.8zm63.875-87.597c.021.381-3.487 1.232-3.956 1.489-.315-1.666 3.113-2.325 3.956-1.49zm-41.998 80.146c.03.783-.065 2.36.814 2.632.416.124 3.01.646 6.51.513 1.802-.477 3.883-.894 6.169-1.224.607-.089 1.157-.162 1.653-.227a21.23 21.23 0 0 0 5.494-2.89c8.306-6.11 16.01-16.306 17.381-26.655 1.362-10.348 2.922-20.882 3.267-27.585.343-6.696-2.981-18.05-3.297-21.073-.82.845-1.383 1.064-2.636 5.113-1.466 4.752 1.684 24.652-2.051 42.035-3.742 17.383-10.789 20.816-13.009 23.074-2.21 2.26-9.088 4.892-12.502 4.533-3.42-.353-5.779.793-7.793 1.754zm-2.578 11.104L117.202 87.9c1.069 1.078 2.621 2.465 2.153 3.367 3.024 1.562 6.834 3.454 9.513 6.322-.028-.102-.468-.813-.416-1.012-.125-1.255-.169-2.648-.045-3.85zm-11.286-6.682l11.624 5.075c.108-.308.746-1.254.907-1.466-3.244-.162-9.161-4.41-11.74-6.234-.256.35-.425 1.598-.79 2.625zm81.43-52.032c.242.558-.08 1.158-.373 1.592-1.51-.015-2.74-.749-3.083-1.21l.343-1.049c.507-.022 1.956.074 3.113.667zm-67.828 64.882c-.36-1.137-.683-1.834-.338-3.346.343-1.51-.11-4.495 2.19-3.622 2.299.874 3.728 1.974 7.793 2.42 20.39 2.275 45.191-21.966 53.092-39.13 2.316-5.024 4.856-14.09 5.156-17.875 7.23 6.968-1.779 29.492-4.438 35.193-10.085 21.614-29.244 37.707-52.616 32.455-5.076-1.138-9.654-4.423-10.84-6.095zm2.951-10.672c1.084-.366 4.541-.33 7.346-1.437 2.798-1.107 12.1-2.816 15.696-3.785 3.589-.969 19.02-12.242 22.807-18.52 3.793-6.278 5.003-11.406 7.515-17.287 2.518-5.883 4.073-9.784 6.694-11.788.784.346 2.359 1.474 2.725 2.07-3.304 23.917-20.573 37.2-25.195 41.528-9.874 9.249-15.375 9.96-21.204 12.358-5.822 2.398-15.85.293-17.059-.895-1.2-1.187 1.078-2.024.675-2.244zm18.01 240.815h.674c.563 1.08 2.886 1.433 3.874-.599.212-.433.834-2.054.726-2.546-.33-.74-.373-1.549-.36-2.448 2.777-3.742 6.035-10.123 7.391-21.924.52-8.23.292-15.71-.227-21.651a132.145 132.145 0 0 0 5.318 2.94c-.074 4.152-.162 7.627-.645 8.977-.96 2.685-2.682 3.647-1.532 4.982 1.151 1.34 1.34 4.606.77 5.558-.49.822.41 1.637 1.281 2.334-1.142 10.597-7.873 21.57-15.52 28.816-8.167 7.725-19.621 7.122-20.581 6.968-.958-.154-1.026-1.855-1.127-2.683 2.036-1.322 4.408-2.877 8.064-3.008 3.244-.11 9.147-3.134 11.893-5.716zm4.833-8.919c-.204-1.51-.769-3.246-2.255-5.278-3.524-4.842-11.47-15.27-16.311-25.451a110.922 110.922 0 0 0 13.09 9.27c2.671 1.607 9.264 1.421 10.332.174.308-.356.689-1.047 1.064-1.89-.038 7.159-.675 13.216-2.14 15.674-2.197 3.675-2.886 5.669-3.78 7.501zm5.648-32.93c-2.037-3.323-5.618-8.86-9.171-15.051 2.44 2.266 5.385 4.393 8.452 6.324.308 2.809.55 5.772.719 8.727zm8.225 18.365c1.999.896 5.998 2.085 6.467.992.03-.068.05-.128.08-.184.096 0 .192 0 .3-.008 1.29-.131 2.49-2.963 3.143-4.79.454-.255.973-1.261.93-2.12 1.31-1.759 5.303-7.121 7.984-10.912l.257-.367c-1.59 6.74-5.348 12.506-7.091 15.812-2.11 4.005-13.937 15.908-19.688 22.063-5.756 6.155-5.66 11.53-5.66 11.53.241 1.65.365 1.878 1.582 3.115-.045.684.036.51.893.947 1.663.845 3.465 1.247 5.368 1.293-6.694 5.727-14.875 8.75-24.257 6.285-4.806-1.262-7.618-2.383-9.537-3.395-.425-1.4-.13-3.823 4.095-3.507 4.225.315 14.532-2.956 17.417-5.391 2.886-2.428 5.09-2.522 12.004-15.243 4.234-7.772 5.295-12.152 5.713-16.12zm-53.664 39.638l-8.972 3.137c-.66-.247-.733-.886-.315-1.751 1.01-2.113 3.551-.573 5.177-1.636.917-.603 2.147-1.782 2.966-2.144.206.845.499 1.804.806 2.12.096.097.212.186.338.274zm-7.391 3.703c2.19-.601 8.102-3.36 6.9-.447-1.465.5-3.955 1.261-4.937 1.042-.52-.12-1.238-.355-1.963-.595zm20.567-6.227c-.081 1.005-.872 1.525-1.195 2.323l-.446-.269-10.628 2.764c-.438.858-.864.36-.41-.14 1.706-1.869 9.588-2.905 12.678-4.678zm-13.002-.017c.668.083 1.217.141 2.278-.152 1.064-.293 7.727-2.42 9.99-3.05.148.403-.262.989-.159 1.657-1.54.88-11.053 5.038-11.932 3.213-.47-.964-.182-1.181-.177-1.668zm-6.774-62.68c1.444.785 2.857 1.527 3.992 2.48 2.505 2.119 3.727 3.99 6.02 6.785.162.19 2.014 3.043 2 2.574-.11-2.736 4.021-2.112 5.845-2.574 2.483 5.098 9.917 20.111 12.355 22.693 2.608 2.756 10.423 10.055 13.155 12.813-.915-.388-2.702 1.238-1.963 2.978-.542-.199-.593-1.284-2.607-.916-2.023.374-8.028-4.11-15.468-10.763-7.142-6.393-19.607-17.75-23.33-36.07zm19.505 8.114c.593-.772.329-1.469.44-2.569 0 0-1.165-.813-2.63-1.958-1.179-2.625-1.934-5.305-2.746-7.887 2.848 3.957 6.474 7.763 10.378 11.246 6.643 15.609 17.497 26.052 18.83 30.694 1.187 4.138.812 4.653.572 5.847-1.985-2.355-11.31-9.871-14.78-15.705-2.82-4.722-6.358-12.043-10.064-19.668zm-4.805-6.683c-.85-.747-1.648-1.519-2.248-2.23-2.322-2.729-2.843-6.109-2.843-6.109.36-1.408.915-1.438 1.172-2.758.045-.227.088-.462.126-.704.277.578.577 1.166.9 1.744.66 3.185 1.787 6.867 2.893 10.057zm28.477 47.118c-.118-.154-.382-1.562.197-2.266.58-.712 2.006-.727 2.14-.971 1.215 1.205-1.122 3.44-2.337 3.237zm39.066-45.225c.645-1.36 1.129-2.614 1.451-3.675l.52.293 2.63 1.472c-.675 2.642-1.728 7.77-2.63 10.08-2.702 6.932-10.041 31.642-32.095 45.123-.695-.169-2.285-1.468-2.863-2.2 1.091-3.748 4.365-7.08 9.25-12.293 4.886-5.216 9.455-8.662 14.311-15.463 4.058-5.685 8.27-17.154 9.426-23.337zm7.215-.434l.587.329s.285-.145 1.706-3.277c1.421-3.141 3.266-8.984 7.112-11.551 1.28-.858 2.38-3.059 3.281-6.022 4.08 20.412-2.49 42.1-16.905 58.493-4.657 5.3-23.525 23.433-32.563 18.21 3.566-1.878 11.514-8.426 15.63-13.063 8.306-9.357 17.117-26.308 21.152-43.119zm-40.013 57.475c.608.041 1.092-.557 1.414-1.064-.497-1.68-1.595-2.757-2.152-2.958l-.902.825c.14.57.695 2.146 1.64 3.197zm-18.2-163.129c-.658-2.097 3.808-10.584 4.571-12.411-.527 3.55-7.185 12.462 1.091 13.378 3.237.36 5.633 2.7 9.353 2.978 4.798-.278 6.731-3.094 10.129-3.44 6.315-.366.11-9.366.015-12.916.76 1.827 5.229 10.314 4.578 12.411-.609 1.95-3.26 1.57-6.234 3.066-2.064 1.033-4.466 2.244-6.81 2.698-3.12.594-5.685-.3-10.466-2.698-2.974-1.489-5.62-1.115-6.227-3.066zm1.136-31.334c-1.151-.652-2.878-1.202-4.828-1.878-.182 5.09-12.296 4.812-11.85-1.782-2.366.154-4.4.366-5.887 1.365 1.72 1.495 3.55 3.725 6.686 4.627 2.505.726 6.643 1.327 10.877.383 2.724-.603 3.727-2.12 5.002-2.715zm-25.357-3.748c1.428-1.37 3.487-3.014 5.551-3.433 2.586-.52 10.204.654 16.092 2.751-8.62-4.82-23.657-11.258-29.443-6.234-.666-1.291-1.53-3.162-.454-4.07 3.23-2.736 13.543-3.067 15.894-2.993.915.022 1.757.088 2.483.197.088.507 10.758 6.851 16.676 10.849 1.091.74 6.328 2.801 8.51-.764-1.676 5.362-2.658 4.467-3.031 5.72-1.406 4.748-.454 18.992-1.575 20.332-.776-6.145-.739-15.276-1.414-17.984-5.86 8.757-10.393 16.1-9.93 14.062.469-2.047 6.943-11.538 3.317-10.731-4.577 1.012-10.943 1.4-10.965 1.4-3.075-.13-7.558-7.07-14.839-5.794-.82-1.915 2.205-3.366 3.128-3.308zm61.655.206c-.234 1.333 1.457 2.91 2.85 2.91 1.588 0 2.878-1.62 2.878-2.521 0-.903-.118-.8-.322-1.145a31.741 31.741 0 0 1 1.691 0c.63 5.494-9.594 6.498-8.122 1.02.337-.097.68-.177 1.025-.264zm-3.304.997c-.607 5.684 12.73 5.5 11.807-1.643 1.752.198 3.143.506 4.373 1.166-1.633 1.914-3.105 4.167-5.252 4.937-2.453.88-7.198 1.166-11.44.227-2.658-.47-4.321-1.24-5.105-2.135 1.238-.909 3.414-1.731 5.618-2.552zm18.143-2.405c-1.494-1.093-3.216-2.12-4.76-2.428-6.029-.617-13.448 1.26-18.362 4.152 2.709-2.216 22.734-16.248 32.782-7.915.667-1.291 1.275-3.69.199-4.6-3.23-2.736-13.286-2.544-15.638-2.47-6.16.176-14.047 7.01-18.889 10.283-1.09.74-10.957 3.579-13.14.19 1.86 4.35 5.421 2.78 5.721 5.736.739 7.385-.718 11.06 1.81 19.531 1.288-10.723-.587-16.517.014-15.013 2.987.58 6.87 8.691 12.964 12.19-4.3-4.973-6.22-7.716-8.797-10.422-1.069-3.669 7.691-.476 14.95.579 8.326 1.203 4.372-8.369 14.553-6.58 4.005-2.839 5.089-3.57.094-4.333-1.384-.096-2.511.358-3.501 1.1zm-59.252 2.126c-.088 1.32-1.32 2.377-2.88 2.377-1.5 0-3.266-1.686-2.76-3.213a26.002 26.002 0 0 0-1.524-.043c-.043 4.767 8.732 5.961 8.284 1.305-.27-.184-.389-.25-1.12-.426zm-28.661 53.197c-.55-.952-1.024-1.905-1.346-2.809l-.17-.439c.505 1.115 1.011 2.208 1.516 3.248zm84.251-11.902a37.603 37.603 0 0 1 8.153 5.456c1.522-1.607 5.272-5.794 7.074-9.594 1.429-3.007 3.86-13.775.234-16.203-.688-.462-4.929 2.642-5.163 4.139-.227 1.494-4.124 7.927-6.072 10.113-1.479 1.658-3.392 4.724-4.226 6.089zm10.356 7.554c2.418 2.478 4.483 5.244 6.242 8.2 1.625-1.782 5.045-6.835 6.313-10.356 1.487-4.138 2.175-9.88 2.636-16.548.454-6.66-1.603-9.19-2.183-9.996-.571-.8-2.401-7.006-2.52-8.846-.116-1.842 1.152-4.136 1.606-5.516.277-.844.007-2.274-.25-3.271-.118.976-.922 2.039-2.044 2.465-1.113.424-.894.644-1.69.828.05 1.078-.185 3.712.284 6.067.469 2.353.776 6.988.71 8.785.638.308 1.503.412 2.536.412.731 0-3.1 1.489-2.316 5.148.345 1.607-1.94 10.577-3.662 14.14-1.295 2.686-4.27 6.683-5.662 8.488zm6.182-42.922c-1.165.27-1.904.528-1.42 1.012.915.917.797 3.102.797 5.742 0 2.223-.242 5.34.227 6.683.469.139.851.293 1.033.44 1.238.99.85-4.122.806-4.937-.103-1.936-1.194-7.672-1.443-8.94zm-.893-.953c.872.007 1.757 0 2.336-.104 1.07-.197 2.549-1.716 2.974-3.087-.506-.388-1.114-.784-1.54-.837-.108.022-.219.038-.327.06a.272.272 0 0 0-.073.073c-1.13 1.348-3.012 2.032-3.37 3.895zm-53.987 65.834l16.303 40.216c-1.164-5.158-2.782-10.4-4.483-14.802-4.393-12.028-8.531-20.11-11.82-25.414zm17.072 44.001c-2.233-4.356-6.979-13.716-10.078-20.671-3.808-8.53-10.421-26.66-11.557-29.783a27.272 27.272 0 0 0-1.926-2.098 472.04 472.04 0 0 0-5.779 4.657c5.398 20.846 10.1 42.724 30.204 60.042l.008-.068c.315-3.344-.058-7.59-.872-12.079zm.426 21.74c.043-2.486.116-5.076.27-7.488-10.928-7-21.84-18.837-31.427-60.446a266.878 266.878 0 0 0-.315 13.181c0 8.036 1.787 11.617 5.706 26.27.856 3.198 2.29 6.771 4.012 10.418 5.779 8.464 18.12 17.918 21.754 18.065zm-33.788-66.225c-1.648 1.453-2.974 2.73-3.75 3.682.587 3.712 3.677 23.001 6.248 34.597 2.85 12.866 11.053 23.59 12.474 26.098 1.427 2.501 6.95 12.505 8.554 13.399 1.318.734 2.87.75 3.392.725v-.008c0-1.964-2.674-7.685-5.706-10.721-3.032-3.046-12.298-17.874-16.759-34.318-4.218-15.572-4.445-31.781-4.453-33.454zm-5.932 7.343c-1.926 3.703-4.562 9.527-6.503 14.794 2.606 20.668 18.17 45.15 23.839 52.244-14.136-13.718-19.942-28.46-25.56-47.067-.396 1.408-.683 2.676-.814 3.727-.872 6.923-.292 5.948.542 13.48.345 3.147.476 5.986.396 8.376 6.19 12.492 25.342 30.916 32.548 31.488.529-.689 1.421-1.723 2.52-2.493 1.78-1.254.887-3.58-.718-5.721-1.603-2.15-15.147-22.166-18.355-33.066-2.878-9.762-7.265-30.724-7.895-35.762zm32.747 72.767c-.184 1.474-.58 2.867-.968 3.387-.401.535-2.291 1.26-4.7 1.232.637-1.226 2.144-4.106 2.563-4.803.403-.682 2.233-.132 3.105.184zm29.327-37.204c-.608-20.226-1.517-32.008-10.197-44.159-2.82-3.94-6.898-6.697-10.963-11.054-5.216-2.208-13.258-3.747-15.103-4.078a23.354 23.354 0 0 1-2.47 2.297l-.042.035c2.05 1.688 9.763 8.134 13.228 12.932 4.02 5.552 10.143 15.518 11.865 19.738 1.728 4.217 7.66 19.741 7.66 30.666 0 10.928-4.591 25.876-5.932 28.942-.887 2.024-1.605 4.21-1.993 5.464.829.278 1.598.55 2.205.813.446-.425.74-.717.74-.717l1.53-2.113c1.853-2.548 3.758-2.803 7.851-10.16 6.248-11.245 1.971-16.972 1.62-28.606zm-26.588-59.203c-2.886-1.489-6.225-2.882-7.28-3.316a16.13 16.13 0 0 1-1.18 1.775l8.46 1.541zm-14.634 4.195l-2.11 1.666c1.928 3.389 10.343 18.3 13.382 25.412 3.45 8.047 9.383 22.994 9.954 31.621.57 8.626-.763 33.158-.763 34.311 0 .61 2.652 1.438 5.282 2.28l2.372-6.497s7.654-18.974 4.213-35.653c-3.45-16.674-7.852-22.234-9.954-26.449-2.11-4.217-7.464-14.567-10.144-17.823-2.242-2.72-9.816-7.407-12.232-8.868zm28.074 97.924c-2.402-1.454-7.185-2.426-8.188-2.426-1.34 0 0 2.3.19 4.407.183 1.956 4.145 1.768 5.94 2.493.03-.651.206-2.86 1.332-3.828.242-.205.484-.425.726-.646zm-19.41-111.5c.075.198.133.404.176.645.733.191 15.623 5.07 16.253 5.297 9.463 3.344 21.32 15.13 26.147 31.935 4.278 14.888 5.297 27.186 4.447 33.174-.55 3.842-1.524 9.086-2.147 12.359.673-.933 1.399-1.908 2.14-2.773 1.104-3.478 3.72-12.462 4.78-22.583 1.056-10.012.895-22.767-.327-31.224-5.633-17.89-18.085-33.078-37.787-32.243-5.507.235-11.681 4.071-13.682 5.414zm.08 2.706c-.05.22-.123.47-.211.742 1.59 1.02 11.887 7.657 16.34 11.067 16.692 12.8 17.374 32.228 18.085 52.23 1.368 5.061 1.852 10.166 1.953 14.352.704 1.829 5.663 2.29 5.663 2.29s-.338 1.013-2.528.842c-1.419-.11-2.563 1.14-3.185 2.018-.124 2.802-.366 4.54-.366 4.54l4.98.288s.58-2.152 1.59-4.02c1.545-6.492 3.932-18.88 2.74-29.851-1.978-18.242-11.353-42.27-29.753-49.422-.469-.177-12.238-4.064-15.307-5.076zm54.171 36.564c1.121 8.11.945 16.163-.506 23.009-1.72 8.149-2.702 13.305-4.224 15.644.804-4.774 3.09-18.395 3.646-22.605.477-3.594.953-10.63 1.084-16.048zm-97.288 50.697l7.969 10.789c-1.391-.866-3.229-2.163-4.028-1.425-2.409-2.837-5.375-6.439-9.031-8.551.118 0 .96.28 1.143.174 1.318-.202 2.755-.525 3.947-.987zm9.881 10.37l-8.328-11.163c.279-.199 1.078-1.137 1.252-1.372 1.048 3.455 6.98 8.699 9.551 10.979-.292.375-1.522.89-2.475 1.556zm31.047-101.694c-.629-.11-1.157.396-1.523.828.426 1.622 1.51 2.758 2.072 3l.975-.653c-.11-.55-.6-2.09-1.524-3.175zm-47.848 90.486c1.252.089 2.05.25 3.5-.535 1.451-.777 4.622-1.087 3.105-3.329-1.515-2.244-3.017-3.492-4.584-7.745-7.85-21.366 10.181-54.584 25.562-67.707 4.496-3.836 13.066-9.014 16.852-10.348-9.075-5.92-29.634 9.828-34.73 14.222-19.337 16.657-30.572 41.624-18.876 65.395 2.542 5.164 7.134 9.217 9.17 10.047zm10.093-6.042c.08-1.262-.895-4.981-.522-8.295.368-3.318-.408-13.807-.395-17.934.015-4.129 7.346-23.779 12.723-29.543 5.384-5.766 10.29-8.444 15.615-12.734 5.331-4.283 8.884-7.004 10.217-10.37-.556-.75-2.139-2.143-2.85-2.385-23.523 9.976-32.409 32.147-35.572 38.287-6.761 13.121-5.993 19.237-6.863 26.163-.871 6.914 3.998 17.155 5.537 18.139 1.538.974 1.772-1.703 2.11-1.328zM52.895 118.448l-.227-.058c-2.769-.711-12.963-.565-13.74 1.803-.33.991-.36 1.761-.286 2.326 4.57-1.562 9.36-2.912 14.253-4.07zm192.216 4.987a1949.53 1949.53 0 0 0-17.863-2.72c2.754-.2 6.512-.368 9.932-.2 6.37.309 8.041.28 7.938 2.817l-.007.103zM52.895 191.882l-.227.058c-2.769.712-12.963.565-13.74-1.804-.33-.99-.36-1.76-.286-2.325 4.57 1.562 9.36 2.912 14.253 4.07zm192.216-4.987c-5.983.939-12.04 1.862-17.856 2.72 2.747.2 6.505.374 9.925.205 6.37-.313 8.041-.285 7.938-2.822l-.007-.103z"/>
</svg>
