<svg xmlns="http://www.w3.org/2000/svg"><symbol id="icon-check" viewBox="0 0 20 20"><path d="M7.984 15L4 11l2-2 2 2 6-6 2 2z"/></symbol><symbol id="close" viewBox="0 0 20 20"><path d="M10 8.586L18.146.439a.5.5 0 0 1 .708 0l.707.707a.5.5 0 0 1 0 .708L11.414 10l8.147 8.146a.5.5 0 0 1 0 .708l-.707.707a.5.5 0 0 1-.708 0L10 11.414l-8.146 8.147a.5.5 0 0 1-.708 0l-.707-.707a.5.5 0 0 1 0-.708L8.586 10 .439 1.854a.5.5 0 0 1 0-.708L1.146.44a.5.5 0 0 1 .708 0L10 8.586z" id="Combined-Shape"/></symbol></svg>