<svg xmlns="http://www.w3.org/2000/svg" width="32" height="32"><defs><linearGradient id="a" x1="50%" x2="50%" y1="0%" y2="100%"><stop offset="0%" stop-color="#FDB351"/><stop offset="49.013%" stop-color="#D42576"/><stop offset="100%" stop-color="#5A40D3"/></linearGradient><linearGradient id="b" x1="50%" x2="50%" y1="0%" y2="100%"><stop offset="0%" stop-color="#E86964"/><stop offset="49.013%" stop-color="#D42576"/><stop offset="100%" stop-color="#A2309C"/></linearGradient></defs><g fill="none" fill-rule="evenodd"><path fill="url(#a)" d="M9.064 2.73a6.341 6.341 0 0 0-6.335 6.333v13.718a6.341 6.341 0 0 0 6.335 6.335H22.78a6.341 6.341 0 0 0 6.335-6.335V9.063A6.341 6.341 0 0 0 22.78 2.73H9.064zM22.78 31.845H9.064C4.066 31.845 0 27.78 0 22.781V9.063C0 4.066 4.066 0 9.064 0H22.78c4.998 0 9.064 4.066 9.064 9.063v13.718c0 4.998-4.066 9.064-9.064 9.064z"/><path fill="url(#b)" d="M15.923 10.498a5.43 5.43 0 0 0-5.425 5.425 5.43 5.43 0 0 0 5.425 5.424 5.43 5.43 0 0 0 5.424-5.424 5.43 5.43 0 0 0-5.424-5.425m0 13.578c-4.497 0-8.154-3.657-8.154-8.153 0-4.497 3.657-8.155 8.154-8.155 4.496 0 8.154 3.658 8.154 8.155 0 4.496-3.658 8.153-8.154 8.153"/><path fill="#EA7261" d="M24.426 9.262a1.96 1.96 0 1 1 0-3.92 1.96 1.96 0 0 1 0 3.92z"/></g></svg>